HIERARCHY
ROOT Hips
{
	OFFSET 0.000000 88.474243 0.000000
	CHANNELS 6 Xposition Yposition Zposition Zrotation Yrotation Xrotation 
	JOINT Hips_Spine
	{
		OFFSET 0.000000 0.000000 0.000000
		CHANNELS 3 Zrotation Yrotation Xrotation
		JOINT Spine
		{
			OFFSET 0.005100 8.711998 -0.691000
			CHANNELS 3 Zrotation Yrotation Xrotation
			JOINT Spine1
			{
				OFFSET -0.009200 8.660301 -1.275000
				CHANNELS 3 Zrotation Yrotation Xrotation
				JOINT Spine2
				{
					OFFSET 0.006300 9.852501 -1.857000
					CHANNELS 3 Zrotation Yrotation Xrotation
					JOINT Spine2_Neck
					{
						OFFSET 0.000000 0.000000 0.000000
						CHANNELS 3 Zrotation Yrotation Xrotation
						JOINT Neck
						{
							OFFSET 0.016300 11.420799 -0.263300
							CHANNELS 3 Zrotation Yrotation Xrotation
							End Site #name: Head
							{
								OFFSET -0.019200 9.262405 2.362500
							}
						}
					}
					JOINT Spine2_LeftShoulder
					{
						OFFSET 0.000000 0.000000 0.000000
						CHANNELS 3 Zrotation Yrotation Xrotation
						JOINT LeftShoulder
						{
							OFFSET 5.616900 6.732201 -0.345700
							CHANNELS 3 Zrotation Yrotation Xrotation
							JOINT LeftArm
							{
								OFFSET 10.664888 -0.183372 -2.440700
								CHANNELS 3 Zrotation Yrotation Xrotation
								JOINT LeftForeArm
								{
									OFFSET 27.459126 0.000000 0.000000
									CHANNELS 3 Zrotation Yrotation Xrotation
									End Site #name: LeftHand
									{
										OFFSET 21.306858 0.000000 0.000000
									}
								}
							}
						}
					}
					JOINT Spine2_RightShoulder
					{
						OFFSET 0.000000 0.000000 0.000000
						CHANNELS 3 Zrotation Yrotation Xrotation
						JOINT RightShoulder
						{
							OFFSET -5.580300 6.737503 -0.344400
							CHANNELS 3 Zrotation Yrotation Xrotation
							JOINT RightArm
							{
								OFFSET -10.679335 -0.188484 -2.383900
								CHANNELS 3 Zrotation Yrotation Xrotation
								JOINT RightForeArm
								{
									OFFSET -27.503529 0.000000 0.000000
									CHANNELS 3 Zrotation Yrotation Xrotation
									End Site #name: RightHand
									{
										OFFSET -21.306808 0.000000 0.000000
									}
								}
							}
						}
					}
				}
			}
		}
	}
	JOINT Hips_LeftUpLeg
	{
		OFFSET 0.000000 0.000000 0.000000
		CHANNELS 3 Zrotation Yrotation Xrotation
		JOINT LeftUpLeg
		{
			OFFSET 6.857700 -6.739601 0.312100
			CHANNELS 3 Zrotation Yrotation Xrotation
			JOINT LeftLeg
			{
				OFFSET -0.367590 -34.731552 -4.572400
				CHANNELS 3 Zrotation Yrotation Xrotation
				End Site #name: LeftFoot
				{
					OFFSET 0.367590 -34.656704 -6.067400
				}
			}
		}
	}
	JOINT Hips_RightUpLeg
	{
		OFFSET 0.000000 0.000000 0.000000
		CHANNELS 3 Zrotation Yrotation Xrotation
		JOINT RightUpLeg
		{
			OFFSET -6.876100 -6.733299 0.301000
			CHANNELS 3 Zrotation Yrotation Xrotation
			JOINT RightLeg
			{
				OFFSET 0.347353 -34.795158 -4.515900
				CHANNELS 3 Zrotation Yrotation Xrotation
				End Site #name: RightFoot
				{
					OFFSET -0.347353 -34.589367 -6.070300
				}
			}
		}
	}
}
MOTION
Frames: 12
Frame Time: 0.041667
0.107815 -0.009570 -0.039778 7.400060 -49.634386 -8.809272 -0.000000 0.000000 0.000000 -0.410192 1.823742 3.383885 -1.529166 3.215693 9.988160 0.000000 0.000000 0.000000 -0.860755 2.930464 11.249673 -2.863187 -3.650048 -6.105354 -1.243952 3.458824 12.253162 -10.631971 2.883459 5.339357 -51.755732 -17.682715 5.505646 -29.980901 -52.637411 35.701186 -1.322774 4.129362 9.650773 15.719086 -4.725710 -1.434042 32.210142 41.340378 9.644187 45.299423 76.092603 49.716486 0.000000 0.000000 0.000000 16.003724 21.978370 -22.060945 -1.691703 -1.991231 35.246032 -0.000000 -0.000000 0.000000 -13.817509 -20.975708 -26.862253 2.101995 6.820250 38.927473 
0.327758 -0.417284 -0.097230 9.265747 -50.762281 -11.618005 -0.000000 0.000000 -0.000000 -0.137097 1.383568 5.522131 -1.261914 3.834171 10.939162 0.000000 0.000000 0.000000 -1.018514 3.511681 11.306382 -3.751570 -3.144383 -3.754392 -0.909951 3.883597 11.769333 -13.818878 1.714459 4.136519 -54.429761 -26.152331 6.041171 -48.665599 -65.455738 46.407838 -1.282800 3.384176 11.722898 15.182039 -2.860373 1.366075 23.857711 46.744605 -0.038287 52.688034 69.064129 54.853433 0.000000 0.000000 -0.000000 13.705220 19.898794 -21.160338 -2.131146 -5.933426 35.877245 -0.000000 -0.000000 0.000000 -15.072926 -18.210301 -27.475172 4.554513 8.573636 41.932333 
0.581355 -0.960110 -0.347721 11.146236 -51.904360 -13.642334 -0.000000 0.000000 -0.000000 -0.038739 1.555627 6.986580 -0.811749 3.427426 12.701281 0.000000 0.000000 0.000000 -0.599696 3.128452 12.586745 -4.239593 -1.738049 -3.951296 -0.899426 3.255398 12.984983 -12.696238 2.284703 4.171805 -46.651076 -26.635822 -5.849399 -72.621933 -73.258879 67.947287 -0.799601 3.182596 12.506352 14.441935 -2.850489 0.481306 34.329535 40.786659 1.152519 45.488078 69.809725 46.236082 0.000000 0.000000 -0.000000 12.058697 19.049219 -21.672435 -3.260596 -8.407295 37.373418 -0.000000 -0.000000 0.000000 -15.885255 -18.581356 -29.191097 6.050436 8.999979 44.531964 
0.855717 -1.716484 -0.606019 12.693975 -52.737430 -14.196431 -0.000000 0.000000 -0.000000 0.291929 1.522773 7.948035 -0.197329 3.285436 13.623583 0.000000 0.000000 0.000000 0.018764 3.102752 13.912842 -4.341522 -0.257807 -4.668804 -0.349788 3.105799 13.926249 -12.712192 1.197810 4.172788 -44.598575 -30.940779 -10.813078 -82.099749 -74.107994 76.972380 -0.016417 3.225885 13.665461 14.783182 -3.056088 0.412935 38.429914 36.868072 0.886027 43.914509 71.309756 44.480900 0.000000 0.000000 -0.000000 10.483341 18.877700 -23.379738 -3.875352 -9.935170 39.194108 -0.000000 -0.000000 0.000000 -16.414007 -18.638770 -31.751787 7.090163 8.733547 46.800635 
1.140751 -2.669580 -0.832491 14.054696 -53.925801 -14.200709 -0.000000 0.000000 -0.000000 0.733240 1.307676 8.932760 0.453229 2.970258 14.513755 0.000000 0.000000 0.000000 0.708573 2.925603 15.027458 -4.316681 -0.096779 -4.845525 0.336753 2.937478 14.949871 -12.433430 0.361577 4.999155 -41.494231 -37.113318 -13.939451 -71.866649 -71.008098 66.005598 0.645496 2.957254 14.972194 15.350400 -3.468636 0.626923 38.297743 37.872278 -1.284147 44.400374 68.779336 44.361568 0.000000 0.000000 -0.000000 9.385392 19.926724 -25.947947 -4.503925 -10.358245 42.175829 -0.000000 -0.000000 0.000000 -17.101773 -18.416660 -35.040163 8.044895 8.204083 49.445743 
1.428518 -3.827437 -1.007649 15.471709 -55.250651 -14.269813 -0.000000 0.000000 -0.000000 0.993892 1.032737 9.486014 1.121496 2.643870 15.410791 0.000000 0.000000 0.000000 1.357365 2.583485 15.893662 -4.902681 -0.235299 -5.305775 1.021824 2.519699 16.216695 -11.763324 -0.743273 6.272510 -40.254866 -43.793955 -15.504655 -62.017187 -66.274540 54.754031 1.298561 2.543174 15.738342 14.751045 -4.193642 0.889545 35.508976 42.563643 -5.669126 39.614030 62.511076 38.884376 0.000000 -0.000000 -0.000000 8.405949 21.873594 -28.875851 -4.813715 -9.908056 46.061870 -0.000000 -0.000000 0.000000 -17.482763 -18.086113 -38.811684 8.810320 7.756893 52.374275 
1.728284 -5.123911 -1.109531 16.940578 -56.735307 -14.454386 -0.000000 0.000000 -0.000000 1.307718 0.695005 9.519214 1.874235 2.179690 16.074947 0.000000 0.000000 0.000000 2.094742 2.207623 16.486142 -6.130431 0.088170 -7.152422 1.792624 2.025067 17.168370 -11.029323 -1.885160 7.253231 -42.037902 -50.702073 -14.206874 -49.954198 -58.701355 42.629807 2.077940 2.117771 16.267290 13.991400 -5.672854 0.827087 29.603693 49.475811 -14.234389 34.750199 57.281752 33.303133 0.000000 -0.000000 -0.000000 7.407441 24.094209 -31.769800 -4.508414 -8.904091 50.270893 -0.000000 -0.000000 0.000000 -17.730151 -17.588897 -42.593715 9.380300 7.366463 55.174348 
2.002344 -6.422647 -1.103039 18.567305 -58.358971 -15.007919 -0.000000 0.000000 -0.000000 1.520976 0.361041 8.628540 2.817295 1.314088 16.554621 0.000000 0.000000 0.000000 2.879408 1.393953 16.873036 -7.719706 1.114568 -9.581925 2.624073 1.139931 17.716411 -10.769851 -3.221914 7.821726 -50.401759 -58.047056 -7.439050 -39.222499 -48.926488 33.909649 2.896742 1.254956 16.570801 13.584950 -6.707741 0.771443 22.512595 53.524112 -23.374620 31.887540 54.884076 29.957787 0.000000 -0.000000 -0.000000 6.614696 26.091812 -34.228387 -3.483646 -7.577261 54.329296 -0.000000 -0.000000 -0.000000 -18.028567 -17.000017 -46.099701 9.993517 7.148622 57.720443 
2.199943 -7.580885 -0.949178 20.249839 -59.974202 -15.885246 -0.000000 -0.000000 -0.000000 1.844557 -0.443703 8.116197 3.586785 -0.469779 16.913732 0.000000 0.000000 0.000000 3.594770 -0.110228 17.006476 -9.969910 2.398966 -11.037851 3.371102 -0.214479 17.683103 -10.099994 -4.560823 7.839076 -61.055431 -61.947384 1.519695 -33.373683 -41.865460 31.873385 3.605302 -0.083391 16.595042 13.413787 -7.576418 0.600419 19.034200 54.226357 -26.619560 33.796280 58.792817 31.594470 0.000000 -0.000000 -0.000000 6.039941 27.404628 -35.922263 -2.003220 -6.288021 57.594368 -0.000000 -0.000000 -0.000000 -18.343238 -16.205479 -49.074339 10.436491 7.075832 59.799380 
2.282353 -8.507209 -0.613214 21.917959 -61.684954 -16.944374 -0.000000 -0.000000 -0.000000 2.210405 -1.606704 7.754073 4.096585 -2.476598 16.636195 0.000000 0.000000 0.000000 4.181698 -1.918680 16.337694 -11.324839 2.965291 -9.607143 3.894970 -1.872346 17.192169 -7.901827 -7.252291 7.210502 -74.474112 -61.330410 14.449872 -30.150609 -38.547557 33.727877 4.138058 -1.996473 16.003032 12.620277 -7.580976 0.580745 22.212103 50.987979 -22.959767 38.160359 65.441886 34.992113 0.000000 -0.000000 -0.000000 5.905646 28.627557 -36.560357 -0.207558 -5.108521 59.599849 -0.000000 -0.000000 -0.000000 -18.694645 -15.059127 -51.297153 10.744105 7.246602 61.156597 
2.193430 -9.114342 -0.096017 23.501444 -63.597118 -18.135308 -0.000000 -0.000000 -0.000000 2.627527 -2.638842 7.185799 4.229733 -4.430339 15.156394 0.000000 0.000000 0.000000 4.391535 -4.011149 14.822313 -10.030451 1.539741 -4.007274 4.160776 -3.840754 15.757263 -4.247050 -11.417997 5.687196 -84.322195 -54.195294 23.589475 -26.441150 -36.363842 34.052352 4.403987 -4.128223 14.659193 10.341184 -5.169781 0.916276 30.573374 40.877788 -12.334749 45.483486 73.156263 40.310355 -0.000000 -0.000000 -0.000000 6.056145 29.525933 -36.342454 1.332483 -4.356690 60.654915 -0.000000 -0.000000 -0.000000 -18.868252 -13.804724 -52.673095 10.790789 7.734423 61.645122 
1.914012 -9.322526 0.606098 25.396874 -66.130255 -19.872545 -0.000000 -0.000000 0.000000 2.517408 -3.324154 6.605563 4.169530 -5.792724 13.179476 0.000000 0.000000 0.000000 4.072987 -5.384795 13.063210 -6.342732 0.144848 1.684108 3.887269 -5.441767 13.593793 -1.181855 -16.796907 3.543516 -84.261084 -44.042650 23.206846 -23.329674 -37.361835 33.403088 3.956269 -5.713407 13.028252 5.854052 0.957177 1.774227 37.525643 26.209439 -1.327050 58.853457 79.442531 50.634518 -0.000000 -0.000000 -0.000000 6.453291 29.960604 -35.354552 2.235760 -4.207604 60.796333 -0.000000 -0.000000 -0.000000 -18.745381 -12.400771 -53.084475 10.681596 8.582394 61.210859 
